<?xml version="1.0" standalone="no"?>
<!DOCTYPE svg PUBLIC "-//W3C//DTD SVG 20010904//EN"
 "http://www.w3.org/TR/2001/REC-SVG-20010904/DTD/svg10.dtd">
<svg version="1.0" xmlns="http://www.w3.org/2000/svg"
 width="160.000000pt" height="170.000000pt" viewBox="0 0 160.000000 170.000000"
 preserveAspectRatio="xMidYMid meet">

<g transform="translate(0.000000,170.000000) scale(0.100000,-0.100000)"
fill="#000000" stroke="none">
<path d="M255 1230 c-8 -24 1 -40 21 -40 12 0 14 -64 16 -432 1 -238 4 -391 5
-339 l4 93 27 -6 c151 -34 242 -31 475 15 226 45 399 49 525 13 l22 -6 0 334
0 335 -57 14 c-105 26 -255 17 -468 -26 -163 -33 -209 -39 -320 -39 -100 0
-139 4 -168 16 -34 16 -36 19 -25 37 9 15 9 23 -1 35 -19 22 -48 20 -56 -4z
m39 -11 c-7 -11 -34 -12 -34 -1 0 14 11 21 26 15 8 -3 11 -9 8 -14z m717 -109
l33 -29 -44 -41 c-24 -22 -50 -38 -57 -36 -10 4 -9 -2 3 -25 14 -27 14 -40 3
-98 -7 -36 -16 -70 -20 -75 -10 -12 34 -46 59 -46 21 0 52 -24 52 -40 0 -5 -6
-13 -14 -17 -7 -4 -19 -18 -25 -31 -18 -34 -53 -26 -66 15 -6 17 -19 41 -30
53 -18 20 -20 20 -32 4 -7 -9 -10 -21 -7 -25 6 -11 -38 -29 -70 -29 -15 0 -27
9 -35 26 l-12 27 -24 -34 c-14 -18 -25 -42 -25 -54 0 -23 -26 -65 -40 -65 -14
0 -60 46 -60 60 0 18 30 50 46 50 7 0 23 14 35 31 22 31 22 33 7 91 -11 41
-14 69 -7 90 11 39 -2 56 -44 60 -21 2 -33 9 -35 20 -4 21 45 88 65 88 7 0 22
-20 33 -45 11 -25 22 -45 26 -45 3 0 19 9 34 20 38 27 82 35 121 21 18 -6 34
-9 37 -7 2 3 8 24 13 47 10 44 25 69 40 69 4 0 22 -13 40 -30z"/>
<path d="M846 884 c-9 -8 -16 -22 -16 -29 0 -13 26 -45 36 -45 22 0 44 25 44
49 0 40 -36 54 -64 25z"/>
<path d="M742 864 c-27 -19 -27 -67 0 -72 24 -5 60 35 56 61 -4 28 -26 32 -56
11z"/>
<path d="M807 793 c-12 -12 -7 -22 8 -17 8 4 15 10 15 15 0 11 -14 12 -23 2z"/>
</g>
</svg>
